<svg xmlns="http://www.w3.org/2000/svg" width="340" height="200" viewBox="0 0 340 200"><style>* {
          font-family: 'Segoe UI', Ubuntu, "Helvetica Neue", Sans-Serif
        }</style><rect x="1" y="1" rx="5" ry="5" height="99%" width="99.41176470588235%" stroke="#141321" stroke-width="1" fill="#141321" stroke-opacity="1"></rect><text x="30" y="40" style="font-size: 22px; fill: red;">Top Languages by Commit</text><g transform="translate(0,40)"><g transform="translate(40,0)"><rect y="18" width="14" height="14" fill="#3572A5" stroke="#141321" style="stroke-width: 1px;"></rect><rect y="43.2" width="14" height="14" fill="#f1e05a" stroke="#141321" style="stroke-width: 1px;"></rect><rect y="68.4" width="14" height="14" fill="#89e051" stroke="#141321" style="stroke-width: 1px;"></rect><rect y="93.60000000000002" width="14" height="14" fill="#00ADD8" stroke="#141321" style="stroke-width: 1px;"></rect><rect y="118.80000000000001" width="14" height="14" fill="#e34c26" stroke="#141321" style="stroke-width: 1px;"></rect><text x="16.8" y="30" style="fill: #a9fef7; font-size: 14px;">Python</text><text x="16.8" y="55.2" style="fill: #a9fef7; font-size: 14px;">JavaScript</text><text x="16.8" y="80.4" style="fill: #a9fef7; font-size: 14px;">Shell</text><text x="16.8" y="105.60000000000002" style="fill: #a9fef7; font-size: 14px;">Go</text><text x="16.8" y="130.8" style="fill: #a9fef7; font-size: 14px;">HTML</text></g><g transform="translate( 230, 80 )"><g class="arc"><path d="M3.67394039744206e-15,-60A60,60,0,1,1,-44.0480056902844,40.7403141213795L-25.69466998599923,23.765183237471373A35,35,0,1,0,2.1431318985078682e-15,-35Z" style="fill: #3572A5; stroke-width: 2px;" stroke="#141321"></path></g><g class="arc"><path d="M-44.0480056902844,40.7403141213795A60,60,0,0,1,-57.68796868942685,-16.495401434572813L-33.65131506883233,-9.622317503500806A35,35,0,0,0,-25.69466998599923,23.765183237471373Z" style="fill: #f1e05a; stroke-width: 2px;" stroke="#141321"></path></g><g class="arc"><path d="M-57.68796868942685,-16.495401434572813A60,60,0,0,1,-24.648209747304588,-54.70343459283776L-14.378122352594342,-31.910336845822027A35,35,0,0,0,-33.65131506883233,-9.622317503500806Z" style="fill: #89e051; stroke-width: 2px;" stroke="#141321"></path></g><g class="arc"><path d="M-24.648209747304588,-54.70343459283776A60,60,0,0,1,-10.638241354021524,-59.04936765871067L-6.205640789845889,-34.445464467581225A35,35,0,0,0,-14.378122352594342,-31.910336845822027Z" style="fill: #00ADD8; stroke-width: 2px;" stroke="#141321"></path></g><g class="arc"><path d="M-10.638241354021524,-59.04936765871067A60,60,0,0,1,-1.1021821192326178e-14,-60L-6.429395695523604e-15,-35A35,35,0,0,0,-6.205640789845889,-34.445464467581225Z" style="fill: #e34c26; stroke-width: 2px;" stroke="#141321"></path></g></g></g></svg>