<svg xmlns="http://www.w3.org/2000/svg" width="340" height="200" viewBox="0 0 340 200"><style>* {
          font-family: 'Segoe UI', Ubuntu, "Helvetica Neue", Sans-Serif
        }</style><rect x="1" y="1" rx="5" ry="5" height="99%" width="99.41176470588235%" stroke="#141321" stroke-width="1" fill="#141321" stroke-opacity="1"></rect><text x="30" y="40" style="font-size: 22px; fill: #fe428e;">Top Languages by Commit</text><g transform="translate(0,40)"><g transform="translate(40,0)"><rect y="18" width="14" height="14" fill="#3572A5" stroke="#141321" style="stroke-width: 1px;"></rect><rect y="43.2" width="14" height="14" fill="#f1e05a" stroke="#141321" style="stroke-width: 1px;"></rect><rect y="68.4" width="14" height="14" fill="#89e051" stroke="#141321" style="stroke-width: 1px;"></rect><rect y="93.60000000000002" width="14" height="14" fill="#00ADD8" stroke="#141321" style="stroke-width: 1px;"></rect><rect y="118.80000000000001" width="14" height="14" fill="#178600" stroke="#141321" style="stroke-width: 1px;"></rect><text x="16.8" y="30" style="fill: #a9fef7; font-size: 14px;">Python</text><text x="16.8" y="55.2" style="fill: #a9fef7; font-size: 14px;">JavaScript</text><text x="16.8" y="80.4" style="fill: #a9fef7; font-size: 14px;">Shell</text><text x="16.8" y="105.60000000000002" style="fill: #a9fef7; font-size: 14px;">Go</text><text x="16.8" y="130.8" style="fill: #a9fef7; font-size: 14px;">C#</text></g><g transform="translate( 230, 80 )"><g class="arc"><path d="M3.67394039744206e-15,-60A60,60,0,1,1,-58.90995198688551,-11.384970658848633L-34.36413865901655,-6.641232884328369A35,35,0,1,0,2.1431318985078682e-15,-35Z" style="fill: #3572A5; stroke-width: 2px;" stroke="#141321"></path></g><g class="arc"><path d="M-58.90995198688551,-11.384970658848633A60,60,0,0,1,-41.49279944749346,-43.33990763730452L-24.20413301103785,-25.281612788427637A35,35,0,0,0,-34.36413865901655,-6.641232884328369Z" style="fill: #f1e05a; stroke-width: 2px;" stroke="#141321"></path></g><g class="arc"><path d="M-41.49279944749346,-43.33990763730452A60,60,0,0,1,-14.328920202569163,-58.263900022470224L-8.358536784832012,-33.98727501310763A35,35,0,0,0,-24.20413301103785,-25.281612788427637Z" style="fill: #89e051; stroke-width: 2px;" stroke="#141321"></path></g><g class="arc"><path d="M-14.328920202569163,-58.263900022470224A60,60,0,0,1,-7.216855224119011,-59.564393732112364L-4.209832214069423,-34.74589634373221A35,35,0,0,0,-8.358536784832012,-33.98727501310763Z" style="fill: #00ADD8; stroke-width: 2px;" stroke="#141321"></path></g><g class="arc"><path d="M-7.216855224119011,-59.564393732112364A60,60,0,0,1,-1.1021821192326178e-14,-60L-6.429395695523604e-15,-35A35,35,0,0,0,-4.209832214069423,-34.74589634373221Z" style="fill: #178600; stroke-width: 2px;" stroke="#141321"></path></g></g></g></svg>