<svg xmlns="http://www.w3.org/2000/svg" width="340" height="200" viewBox="0 0 340 200"><style>* {
          font-family: 'Segoe UI', Ubuntu, "Helvetica Neue", Sans-Serif
        }</style><g class="gpsc-root"><rect x="1" y="1" rx="5" ry="5" height="99%" width="99.41176470588235%" stroke="#141321" stroke-width="1" fill="#141321" stroke-opacity="1"></rect><text x="30" y="40" class="gpsc-item" style="--gpsc-i: 0; font-size: 22px; fill: #fe428e;">Top Languages by Commit</text><g transform="translate(0,40)"><g transform="translate(40,0)"><rect y="18" width="14" height="14" class="gpsc-item" style="--gpsc-i: 0; stroke-width: 1px;" fill="#3572A5" stroke="#141321"></rect><rect y="43.2" width="14" height="14" class="gpsc-item" style="--gpsc-i: 1; stroke-width: 1px;" fill="#e34c26" stroke="#141321"></rect><rect y="68.4" width="14" height="14" class="gpsc-item" style="--gpsc-i: 2; stroke-width: 1px;" fill="#f1e05a" stroke="#141321"></rect><rect y="93.60000000000002" width="14" height="14" class="gpsc-item" style="--gpsc-i: 3; stroke-width: 1px;" fill="#89e051" stroke="#141321"></rect><rect y="118.80000000000001" width="14" height="14" class="gpsc-item" style="--gpsc-i: 4; stroke-width: 1px;" fill="#00ADD8" stroke="#141321"></rect><text x="16.8" y="30" class="gpsc-item" style="--gpsc-i: 0; fill: #a9fef7; font-size: 14px;">Python</text><text x="16.8" y="55.2" class="gpsc-item" style="--gpsc-i: 1; fill: #a9fef7; font-size: 14px;">HTML</text><text x="16.8" y="80.4" class="gpsc-item" style="--gpsc-i: 2; fill: #a9fef7; font-size: 14px;">JavaScript</text><text x="16.8" y="105.60000000000002" class="gpsc-item" style="--gpsc-i: 3; fill: #a9fef7; font-size: 14px;">Shell</text><text x="16.8" y="130.8" class="gpsc-item" style="--gpsc-i: 4; fill: #a9fef7; font-size: 14px;">Go</text></g><g transform="translate( 230, 80 )"><g class="arc" style="--gpsc-i: 0;"><path d="M3.67394039744206e-15,-60A60,60,0,1,1,-59.96950575682595,-1.912689018638273L-34.9822116914818,-1.1157352608723259A35,35,0,1,0,2.1431318985078682e-15,-35Z" style="fill: #3572A5; stroke-width: 2px;" stroke="#141321"></path></g><g class="arc" style="--gpsc-i: 1;"><path d="M-59.96950575682595,-1.912689018638273A60,60,0,0,1,-45.752491692339774,-38.816356139421174L-26.6889534871982,-22.64287441466235A35,35,0,0,0,-34.9822116914818,-1.1157352608723259Z" style="fill: #e34c26; stroke-width: 2px;" stroke="#141321"></path></g><g class="arc" style="--gpsc-i: 2;"><path d="M-45.752491692339774,-38.816356139421174A60,60,0,0,1,-27.50046119215282,-53.3265846854915L-16.041935695422477,-31.10717439987004A35,35,0,0,0,-26.6889534871982,-22.64287441466235Z" style="fill: #f1e05a; stroke-width: 2px;" stroke="#141321"></path></g><g class="arc" style="--gpsc-i: 3;"><path d="M-27.50046119215282,-53.3265846854915A60,60,0,0,1,-7.125062426520225,-59.57544364432538L-4.156286415470132,-34.75234212585647A35,35,0,0,0,-16.041935695422477,-31.10717439987004Z" style="fill: #89e051; stroke-width: 2px;" stroke="#141321"></path></g><g class="arc" style="--gpsc-i: 4;"><path d="M-7.125062426520225,-59.57544364432538A60,60,0,0,1,-6.431252637433369e-14,-60L-3.7515640385027985e-14,-35A35,35,0,0,0,-4.156286415470132,-34.75234212585647Z" style="fill: #00ADD8; stroke-width: 2px;" stroke="#141321"></path></g></g></g></g></svg>